# xmcd
#
# Track frame offsets:
# 182
# 13187
# 26377
# 39007
# 53390
# 64902
# 76742
# 87835
# 99115
# 111095
# 124947
# 137862
# 150535
# 165420
# 177575
# 189082
#
# Disc length: 2701 seconds
#
#
# Revision: 0
# Processed by: cddbd v1.5.2PL0 Copyright (c) Steve Scherf et al.
# Submitted via: Nero 7, 11, 10, 0 
#
DISCID=b40a8b10
DTITLE=Big Jay McNeely - Road House Boogie
DYEAR=1985
DGENRE=Blues
TTITLE0=Blow, Big Jay
TTITLE1=Road House Boogie
TTITLE2=Willie The Cool Cat
TTITLE3=Midnight Dreams
TTITLE4=Hoppin' With Hunter
TTITLE5=K and H Boogie
TTITLE6=Ginger Cake
TTITLE7=Boogie In Front
TTITLE8=Junie Flip
TTITLE9=Jay's Frantic
TTITLE10=Real Crazy Cool
TTITLE11=Tondalayo
TTITLE12=Deac's Blowout
TTITLE13=Let's Split
TTITLE14=Just Crazy
TTITLE15=Penthouse Serenade
EXTD=
EXTT0=Blow, Big Jay
EXTT1=Road House Boogie
EXTT2=Willie The Cool Cat
EXTT3=Midnight Dreams
EXTT4=Hoppin' With Hunter
EXTT5=K and H Boogie
EXTT6=Ginger Cake
EXTT7=Boogie In Front
EXTT8=Junie Flip
EXTT9=Jay's Frantic
EXTT10=Real Crazy Cool
EXTT11=Tondalayo
EXTT12=Deac's Blowout
EXTT13=Let's Split
EXTT14=Just Crazy
EXTT15=Penthouse Serenade
PLAYORDER=
